<svg width="1080" height="608" viewBox="0 0 1080 608" fill="none" xmlns="http://www.w3.org/2000/svg">
  <rect width="1080" height="608" rx="48" fill="#141414"/>
  <rect x="34" y="34" width="1012" height="540" rx="34" fill="url(#bg)"/>
  <circle cx="178" cy="114" r="110" fill="#FFE1CC" fill-opacity="0.28"/>
  <circle cx="900" cy="486" r="132" fill="#F5D44B" fill-opacity="0.16"/>
  <rect x="76" y="76" width="218" height="46" rx="23" fill="#FFF5F0"/>
  <text x="185" y="106" text-anchor="middle" fill="#D35A00" font-size="20" font-weight="700" font-family="Pretendard, Apple SD Gothic Neo, sans-serif">Image + A11y</text>
  <text x="76" y="194" fill="white" font-size="68" font-weight="800" font-family="Pretendard, Apple SD Gothic Neo, sans-serif">WebP 40~70%</text>
  <text x="76" y="248" fill="#FFD5B7" font-size="34" font-weight="700" font-family="Pretendard, Apple SD Gothic Neo, sans-serif">번들 감소 + AA 통과</text>
  <text x="76" y="294" fill="#C6CBD5" font-size="28" font-weight="500" font-family="Pretendard, Apple SD Gothic Neo, sans-serif">프로젝트 썸네일 최적화와 색상 대비 개선</text>
  <rect x="76" y="344" width="430" height="144" rx="28" fill="#FFFFFF" fill-opacity="0.07" stroke="#FFFFFF" stroke-opacity="0.08"/>
  <text x="112" y="396" fill="#F7F8FA" font-size="22" font-weight="700" font-family="Pretendard, Apple SD Gothic Neo, sans-serif">적용 내용</text>
  <rect x="112" y="420" width="134" height="36" rx="18" fill="#FF6F0F"/>
  <text x="179" y="444" text-anchor="middle" fill="white" font-size="17" font-weight="700" font-family="Pretendard, Apple SD Gothic Neo, sans-serif">unoptimized 제거</text>
  <rect x="258" y="420" width="110" height="36" rx="18" fill="#242424"/>
  <text x="313" y="444" text-anchor="middle" fill="#F7F8FA" font-size="17" font-weight="700" font-family="Pretendard, Apple SD Gothic Neo, sans-serif">WebP 변환</text>
  <rect x="380" y="420" width="92" height="36" rx="18" fill="#242424"/>
  <text x="426" y="444" text-anchor="middle" fill="#F7F8FA" font-size="17" font-weight="700" font-family="Pretendard, Apple SD Gothic Neo, sans-serif">AA 대비</text>
  <rect x="560" y="150" width="438" height="338" rx="34" fill="#FFF9F1"/>
  <rect x="610" y="204" width="156" height="214" rx="24" fill="#FFFFFF" stroke="#FFD9BC" stroke-width="6"/>
  <rect x="804" y="204" width="146" height="214" rx="24" fill="#1F2430"/>
  <rect x="634" y="234" width="108" height="18" rx="9" fill="#E7EAEE"/>
  <rect x="634" y="270" width="78" height="16" rx="8" fill="#D1D7DF"/>
  <rect x="634" y="334" width="108" height="54" rx="18" fill="#FFE4D0"/>
  <rect x="830" y="234" width="92" height="18" rx="9" fill="#F5D44B"/>
  <rect x="830" y="270" width="72" height="16" rx="8" fill="#9CA3AF"/>
  <rect x="830" y="334" width="92" height="54" rx="18" fill="#FF6F0F"/>
  <text x="688" y="462" text-anchor="middle" fill="#656B75" font-size="20" font-weight="700" font-family="Pretendard, Apple SD Gothic Neo, sans-serif">Before</text>
  <text x="877" y="462" text-anchor="middle" fill="#F7F8FA" font-size="20" font-weight="700" font-family="Pretendard, Apple SD Gothic Neo, sans-serif">After</text>
  <text x="780" y="534" text-anchor="middle" fill="#8E5B13" font-size="24" font-weight="700" font-family="Pretendard, Apple SD Gothic Neo, sans-serif">더 가볍고, 더 읽기 쉬운 UI</text>
  <defs>
    <linearGradient id="bg" x1="112" y1="86" x2="996" y2="552" gradientUnits="userSpaceOnUse">
      <stop stop-color="#211C1A"/>
      <stop offset="1" stop-color="#2F2924"/>
    </linearGradient>
  </defs>
</svg>
